<?xml version="1.0" standalone="no"?><!DOCTYPE svg PUBLIC "-//W3C//DTD SVG 1.1//EN" "http://www.w3.org/Graphics/SVG/1.1/DTD/svg11.dtd"><svg t="1496815711958" class="icon" style="" viewBox="0 0 1026 1024" version="1.1" xmlns="http://www.w3.org/2000/svg" p-id="7243" xmlns:xlink="http://www.w3.org/1999/xlink" width="100.1953125" height="100"><defs><style type="text/css"></style></defs><path d="M651.4 241.2H374.6v64h276.9c-0.1-21.3-0.1-42.7-0.1-64zM931.2 102H94.8C42.7 102 0 144.3 0 196v109.1h359.4v-71.5c0-4.1 3.5-7.5 7.6-7.5h292c4.1 0 7.6 3.5 7.6 7.5v71.5H1026V196c0-51.7-42.7-94-94.8-94zM666.6 320.2V493.3c0 2.1-0.7 3.7-1.8 4.9-1.5 2.5-4.3 3.9-7.8 2.4L597.3 476c-24.9-10.3-49.8-20.5-74.8-30.8-3-1.3-6.3-2.3-9.2-3.8-1.4 0.6-3.3 1.1-4.4 1.5-4.1 1.7-8.1 3.3-12.2 5-42.6 17.6-85.2 35.1-127.8 52.7-4.7 1.9-9.6-2.9-9.6-7.3v-32.2-139.5-1.4H0V798c0 51.7 42.7 94 94.8 94h836.4c52.1 0 94.8-42.3 94.8-94V320.1H666.6z m-375 103.5H164.5c-9.8 0-9.8-15 0-15h127.1c9.8-0.1 9.7 15 0 15zM513 744.4c-16.2 0-29.4-13.1-29.4-29.2S496.8 686 513 686s29.4 13.1 29.4 29.2c0 16.2-13.2 29.2-29.4 29.2z" fill="#FF4040" p-id="7244"></path></svg>