<?xml version="1.0" standalone="no"?><!DOCTYPE svg PUBLIC "-//W3C//DTD SVG 1.1//EN" "http://www.w3.org/Graphics/SVG/1.1/DTD/svg11.dtd"><svg t="1496813759334" class="icon" style="" viewBox="0 0 1024 1024" version="1.1" xmlns="http://www.w3.org/2000/svg" p-id="4666" xmlns:xlink="http://www.w3.org/1999/xlink" width="100" height="100"><defs><style type="text/css"></style></defs><path d="M960 756.224c0 12.8-2.048 24.576-6.656 35.328-4.096 10.752-10.24 20.48-18.432 28.672-7.68 8.192-16.896 14.848-27.648 19.456-10.752 4.608-24.576 8.192-37.376 8.192L176.128 847.872c-12.288 0-43.52-3.584-54.784-8.192-11.264-4.608-20.992-11.264-29.696-19.456-8.704-8.192-15.36-17.92-20.48-28.672-5.12-10.752-7.168-22.528-7.168-35.328l0-496.64c0-25.088 8.704-46.592 26.112-64 17.408-17.408 38.4-19.456 63.488-19.456l716.8 0c25.088 0 46.08 2.048 63.488 19.456 17.408 17.408 26.112 38.912 26.112 64l0 140.288-224.256 0c-25.088 0-46.08 3.584-63.488 20.992-17.408 17.408-26.112 38.4-26.112 63.488 0.512 17.408 4.096 32.256 10.752 45.568 5.12 11.264 13.824 21.504 26.112 30.72 12.288 9.216 29.696 17.92 52.736 17.92l224.256 0L960 756.224 960 756.224 960 756.224zM691.712 484.864c0-12.8 4.096-23.04 12.8-31.744 8.704-8.704 18.944-12.8 31.744-12.8s23.04 4.096 31.744 12.8c8.704 8.704 12.8 19.456 12.8 31.744 0 12.8-4.096 23.552-12.8 32.256-8.704 8.704-18.944 13.312-31.744 13.312s-23.04-4.608-31.744-13.312C695.808 507.904 691.712 497.152 691.712 484.864L691.712 484.864 691.712 484.864z" p-id="4667" fill="#FF4040"></path></svg>