<?xml version="1.0" standalone="no"?><!DOCTYPE svg PUBLIC "-//W3C//DTD SVG 1.1//EN" "http://www.w3.org/Graphics/SVG/1.1/DTD/svg11.dtd"><svg t="1496815749454" class="icon" style="" viewBox="0 0 1024 1024" version="1.1" xmlns="http://www.w3.org/2000/svg" p-id="9817" xmlns:xlink="http://www.w3.org/1999/xlink" width="100" height="100"><defs><style type="text/css"></style></defs><path d="M998.4 209.92c0-84.82816-68.77184-153.6-153.6-153.6L465.92 56.32c-84.82816 0-153.6 68.77184-153.6 153.6l0 122.88L179.2 332.8C94.37184 332.8 25.6 401.57184 25.6 486.4l0 348.16 0.16384 0c-0.01024 0.29184-0.08704 0.128-0.08704 0.43008C25.68192 846.30016 34.81088 855.04 46.08 855.04l138.28096 0c-0.00512 0.56832-0.04096 1.13664-0.04096 1.71008 0 67.85536 55.0144 122.88 122.88 122.88s122.88-55.02464 122.88-122.88c0-0.57344-0.03584-1.14176-0.04096-1.71008l235.60704 0c-0.01024 0.56832-0.04608 1.13664-0.04608 1.71008 0 67.85536 55.0144 122.88 122.88 122.88s122.88-55.02464 122.88-122.88c0-0.57344-0.03584-1.14176-0.04608-1.71008L977.92 855.04c11.26912 0 20.39808-8.73984 20.39808-20.04992 0-0.30208-0.0768-0.13824-0.08704-0.43008L998.4 834.56 998.4 209.92zM220.16 588.8c-11.31008 0-20.48-9.16992-20.48-20.48s9.16992-20.48 20.48-20.48l92.16 0L312.32 455.68c0-11.31008 9.16992-20.48 20.48-20.48s20.48 9.16992 20.48 20.48l0 112.64c0 11.31008-9.16992 20.48-20.48 20.48L220.16 588.8zM307.2 938.67008c-45.24032 0-81.92-36.6848-81.92-81.92 0-45.24032 36.67968-81.92 81.92-81.92s81.92 36.67968 81.92 81.92C389.12 901.98528 352.44032 938.67008 307.2 938.67008zM788.48 938.67008c-45.24032 0-81.92-36.6848-81.92-81.92 0-45.24032 36.67968-81.92 81.92-81.92s81.92 36.67968 81.92 81.92C870.4 901.98528 833.72032 938.67008 788.48 938.67008z" p-id="9818" fill="#FF4040"></path></svg>