<?xml version="1.0" standalone="no"?><!DOCTYPE svg PUBLIC "-//W3C//DTD SVG 1.1//EN" "http://www.w3.org/Graphics/SVG/1.1/DTD/svg11.dtd"><svg t="1496815798897" class="icon" style="" viewBox="0 0 1024 1024" version="1.1" xmlns="http://www.w3.org/2000/svg" p-id="11668" xmlns:xlink="http://www.w3.org/1999/xlink" width="100" height="100"><defs><style type="text/css"></style></defs><path d="M388.35 825.529c-89.633-24.091-162.946-88.396-207.161-181.718-23.138-48.832-25.603-61.531-25.603-131.953 0-73.66 1.68-81.321 30.722-140.080 120.983-244.797 452.998-246.576 573.339-3.082 23.090 46.724 30.207 72.356 34.002 122.521 3.743 49.49 2.286 65.029-6.642 70.675-6.284 3.98-7.418 7.298-2.509 7.366 4.903 0.066 26.59-21.9 48.18-48.822 21.59-26.918 41.905-48.942 45.142-48.942 3.238 0 10.298 5.314 15.692 11.814 8.022 9.665-0.237 23.819-45.328 77.689-30.327 36.23-57.869 64.873-61.205 63.644-8.885-3.271-105.216-122.973-105.216-130.743 0-3.633 6.116-8.95 13.601-11.826 9.484-3.637 21.806 4.47 40.667 26.771l27.060 31.987 0.124-33.81c0.171-47.381-28.119-131.571-56.901-169.349-13.344-17.52-43.061-45.978-66.038-63.238-154.785-116.304-382.003-39.673-440.599 148.587-44.692 143.598 18.677 288.671 155.775 356.624 38.819 19.239 54.761 22.233 118.285 22.233 63.271 0 79.627-3.047 118.313-22.043 24.689-12.125 59.143-35.106 76.569-51.065 25.185-23.071 34.021-27.070 43.124-19.519 9.574 7.951 7.761 13.341-11.118 33.044-77.245 80.626-200.119 113.38-312.276 83.234zM450.972 654.028c-3.181-3.181-5.785-25.36-5.785-49.295v-43.504h-40.782c-35.349 0-40.791-2.177-40.791-16.316s5.442-16.316 40.791-16.316c39.882 0 40.785-0.543 40.785-24.47 0-23.932-0.906-24.475-40.785-24.475-34.946 0-40.791-2.272-40.791-15.85 0-12.687 6.626-16.345 33.287-18.352l33.287-2.509-25.894-35.654c-22.948-31.598-24.508-37.039-13.729-47.82 10.779-10.779 15.74-7.341 43.591 30.179l31.431 42.338 38.483-43.45c36.178-40.848 39.306-42.62 52.314-29.613 13.006 13.006 11.936 15.935-17.938 48.928l-31.774 35.087 34.522 2.509c27.885 2.028 34.527 5.556 34.527 18.352 0 13.579-5.841 15.85-40.785 15.85-39.882 0-40.791 0.543-40.791 24.47 0 23.932 0.906 24.47 40.791 24.47 35.349 0 40.785 2.18 40.785 16.319 0 14.116-5.437 16.316-40.382 16.316h-40.382l-2.446 46.906c-2.085 40.038-4.884 47.258-19.095 49.295-9.161 1.309-19.254-0.22-22.432-3.399z" fill="#FF4040" p-id="11669"></path></svg>