<?xml version="1.0" standalone="no"?>
<!DOCTYPE svg PUBLIC "-//W3C//DTD SVG 1.1//EN" "http://www.w3.org/Graphics/SVG/1.1/DTD/svg11.dtd">
<svg t="1496393165225" class="icon" style="" viewBox="0 0 1024 1024" version="1.1" xmlns="http://www.w3.org/2000/svg" p-id="2525" xmlns:xlink="http://www.w3.org/1999/xlink" width="100" height="100">
  <defs>
    <style type="text/css"></style>
  </defs>
  <path
    d="M972.8 753.6c-75.2 0-121.6-28.8-121.6-28.8-25.6-19.2-156.8-110.4-220.8-99.2-14.4 3.2-25.6 9.6-33.6 20.8-28.8 43.2 11.2 102.4 46.4 142.4-57.6-1.6-153.6-11.2-254.4-52.8-81.6-36.8-139.2-94.4-187.2-140.8-46.4-44.8-78.4-78.4-116.8-76.8-17.6 0-33.6 8-49.6 22.4 3.2 1.6 1.6 3.2 1.6 3.2-20.8 32-14.4 68.8-9.6 89.6 107.2 353.6 435.2 369.6 440 369.6h507.2c12.8 0 24-11.2 24-24V777.6c-1.6-14.4-11.2-24-25.6-24z m-24 201.6H467.2c-3.2 0-296-14.4-393.6-336-3.2-9.6-8-30.4 1.6-46.4 8-6.4 11.2-6.4 12.8-6.4 17.6 0 49.6 30.4 83.2 64 49.6 49.6 112 110.4 201.6 150.4 172.8 70.4 326.4 54.4 332.8 54.4 9.6-1.6 17.6-8 20.8-16 3.2-9.6 0-19.2-8-25.6-48-41.6-92.8-100.8-80-120 16-9.6 99.2 27.2 185.6 91.2 1.6 1.6 48 32 124.8 36.8v153.6zM137.6 489.6c12.8 0 22.4-11.2 22.4-25.6 0-9.6-1.6-19.2-1.6-27.2 0-203.2 164.8-368 368-368s368 164.8 368 368c0 68.8-19.2 136-54.4 193.6-8 11.2-4.8 25.6 8 32 3.2 3.2 8 3.2 12.8 3.2 8 0 16-4.8 20.8-11.2 40-65.6 62.4-140.8 62.4-219.2 0-228.8-187.2-416-416-416S112 206.4 112 435.2c0 11.2 0 20.8 1.6 32-1.6 14.4 9.6 24 24 22.4z"
    fill="#999999"
    p-id="2526"></path>
  <path
    d="M656 246.4c9.6-9.6 9.6-24 0-33.6-9.6-9.6-24-9.6-33.6 0l-96 96-96-96c-9.6-9.6-24-9.6-33.6 0-9.6 9.6-9.6 24 0 33.6l105.6 105.6v28.8h-80c-12.8 0-24 11.2-24 24s11.2 24 24 24h80v32h-48c-12.8 0-24 11.2-24 24s11.2 24 24 24h48v72c0 12.8 11.2 24 24 24s24-11.2 24-24v-72h48c12.8 0 24-11.2 24-24s-11.2-24-24-24h-48v-32h80c12.8 0 24-11.2 24-24s-11.2-24-24-24h-80V352l105.6-105.6z"
    fill="#999999"
    p-id="2527"></path>
</svg>
