<?xml version="1.0" standalone="no"?><!DOCTYPE svg PUBLIC "-//W3C//DTD SVG 1.1//EN" "http://www.w3.org/Graphics/SVG/1.1/DTD/svg11.dtd"><svg t="1496393465469" class="icon" style="" viewBox="0 0 1025 1024" version="1.1" xmlns="http://www.w3.org/2000/svg" p-id="4701" xmlns:xlink="http://www.w3.org/1999/xlink" width="100.09765625" height="100"><defs><style type="text/css"></style></defs><path d="M961.518644 757.875706c9.256497-16.777401 17.355932-34.133333 24.876836-52.067797 25.455367-61.324294 38.183051-126.698305 38.183051-193.80791 0-282.323164-229.676836-512-512-512S0 229.676836 0 512s229.676836 512 512 512c27.769492 0 54.960452-2.314124 82.151412-6.363842 57.853107-9.256497 112.813559-28.348023 163.724294-56.117514 26.612429 32.976271 67.109605 54.381921 112.813559 54.381921 79.837288 0 144.632768-64.79548 144.632768-144.632768C1015.322034 824.985311 994.494915 783.909605 961.518644 757.875706zM748.040678 946.476836c-48.59661 26.612429-101.242938 44.546893-156.20339 53.224859-26.033898 4.049718-52.646328 6.363842-79.258757 6.363842-272.488136 0-494.644068-222.155932-494.644068-494.644068s222.155932-494.644068 494.644068-494.644068 494.644068 222.155932 494.644068 494.644068c0 64.79548-12.149153 127.855367-36.447458 187.444068-6.942373 16.19887-14.463277 32.39774-23.141243 48.59661-21.984181-13.884746-48.018079-21.40565-76.366102-21.40565-79.837288 0-144.632768 64.79548-144.632768 144.632768C726.056497 898.458757 734.155932 924.492655 748.040678 946.476836zM974.246328 885.731073 892.673446 885.731073l0 91.40791-42.811299 0L849.862147 885.731073 767.132203 885.731073l0-39.918644 82.151412 0L849.283616 763.661017l42.811299 0 0 82.151412 82.151412 0L974.246328 885.731073z" p-id="4702"></path><path d="M641.012429 388.772881c0 76.366102-57.853107 138.847458-128.433898 138.847458-71.159322 0-128.433898-61.902825-128.433898-138.847458 0-76.366102 57.853107-138.847458 128.433898-138.847458C583.159322 250.503955 641.012429 312.40678 641.012429 388.772881L641.012429 388.772881 641.012429 388.772881zM607.457627 507.950282c-23.719774 27.769492-57.274576 40.497175-94.879096 40.497175s-71.737853-12.727684-94.879096-40.497175c-90.829379 37.60452-155.046328 126.698305-155.046328 231.412429 0 2.892655 0 5.785311 0 8.099435l499.850847 0c0-2.892655 0-5.785311 0-8.099435C762.503955 635.227119 698.287006 545.554802 607.457627 507.950282L607.457627 507.950282zM607.457627 507.950282" p-id="4703"></path></svg>