<?xml version="1.0" standalone="no"?>
<!DOCTYPE svg PUBLIC "-//W3C//DTD SVG 1.1//EN" "http://www.w3.org/Graphics/SVG/1.1/DTD/svg11.dtd">
<svg t="1496393397114" class="icon" style="" viewBox="0 0 1163 1024" version="1.1" xmlns="http://www.w3.org/2000/svg" p-id="3418" xmlns:xlink="http://www.w3.org/1999/xlink" width="113.57421875" height="100">
  <defs>
    <style type="text/css"></style>
  </defs>
  <path
    d="M1055.322183 379.99256c-56.909972-56.905106-129.048156-92.558828-207.381012-103.43873L847.941172 153.364644l-0.338134 0c0-0.836822 0.1715-1.843927 0.1715-2.679533 0-38.998577-40.841288-71.97155-118.006485-95.404996C660.980804 34.527418 569.922903 22.976113 473.516883 22.976113c-96.578736 0-187.63542 11.551305-256.25725 32.470636-77.163981 23.43223-118.00162 56.406419-118.00162 95.408645 0 2.674668 0.166635 5.355417 0.670187 8.03495l0 0 0 89.042473c-11.046536 4.518595-23.935783 10.376348-36.489328 17.407842-42.180446 23.765499-63.604547 50.7153-63.437912 80.0065 0 2.679533 0.166635 5.354201 0.670187 8.033734l-0.166635 0 0 136.749837-0.336918 0c0 19.246904 8.537286 37.324933 25.442792 53.393617 16.904289 16.068684 42.180446 29.789887 72.812021 41.174557l0 114.650684-0.336918 0c0 19.921957 9.207474 38.665308 27.618772 55.737448 60.254827 56.239784 215.414745 88.210517 342.623839 88.210517 8.699056 0 17.404193-0.166635 25.941479-0.503553 13.057098 19.081486 27.952041 37.159515 44.524278 53.898386 68.958748 68.958748 160.680754 106.953868 258.26173 106.953868 97.57976 0 189.306632-37.995121 258.266595-106.953868 68.958748-68.959964 106.953868-160.686836 106.953868-258.266595C1162.276051 540.844813 1124.280931 449.122807 1055.322183 379.99256L1055.322183 379.99256 1055.322183 379.99256zM139.929018 273.208975 139.929018 212.112461c19.246904 12.890463 45.026614 24.270268 77.330616 33.981294 68.793329 20.919332 159.845148 32.46942 256.25725 32.46942 96.572654 0 187.629339-11.550088 256.251168-32.46942 32.64092-9.877661 58.582399-21.427749 78.000803-34.479982l0 61.761836c-3.515139-0.166635-7.198128-0.166635-10.713267-0.166635-97.580976 0-189.302983 37.990255-258.26173 106.955084-6.195888 6.189806-12.220276 12.718963-18.079246 19.412322-161.687859 7.03271-324.042257-35.652506-369.739059-79.168461-6.694575-6.362522-10.376348-12.220276-10.376348-16.572236l-0.836822 0 0-27.785407c0.166635-0.166635 0.503553-0.166635 0.670187-0.166635L139.929018 273.208975 139.929018 273.208975 139.929018 273.208975zM228.809722 93.778788c65.106691-19.750457 151.976833-30.630358 244.707161-30.630358 92.724247 0 179.595605 10.879901 244.705945 30.630358 66.113796 20.083726 89.546026 43.183903 89.546026 56.906323 0 13.726069-23.43223 36.826246-89.546026 56.909972-65.11034 19.750457-151.981698 30.630358-244.705945 30.630358-92.730328 0-179.60047-10.879901-244.707161-30.630358-66.117445-20.083726-89.550891-43.183903-89.550891-56.909972C139.258831 136.962691 162.692277 113.862514 228.809722 93.778788L228.809722 93.778788 228.809722 93.778788zM99.591283 291.620273l0 11.882141 0.835606 0c0 16.068684 7.701681 31.46718 22.763259 45.863436 55.404179 52.724646 211.064001 90.886401 361.035138 91.053035-120.679937 14.561674-214.57914 3.515139-272.657986-8.371868-68.121926-14.059338-126.200772-37.824837-155.658606-63.599682-11.888223-10.381214-16.068684-18.914851-16.068684-23.266812C40.006643 327.606048 66.61831 307.350823 99.591283 291.620273L99.591283 291.620273 99.591283 291.620273zM53.229159 514.233147c-7.364763-7.031493-11.550088-13.892703-12.723829-20.587279l0 0 0-86.201171c36.322693 26.948585 94.738458 49.878478 163.028234 63.937816 52.221093 10.713267 108.627512 16.068684 166.876642 16.068684 31.46718 0 63.434263-1.507009 95.741914-4.68523-15.231862 32.46942-25.609426 66.949402-30.796992 102.768542-75.658188 3.682989-159.179826-1.505793-229.478949-14.224756C132.232202 558.082372 78.001764 537.666593 53.229159 514.233147L53.229159 514.233147 53.229159 514.233147zM432.508961 663.198394c-101.267615 2.508033-196.334476-25.442792-249.899593-55.404179 63.941465 12.890463 136.74862 19.251769 204.871762 19.251769 15.066443 0 29.794752-0.336918 44.357643-1.007105-0.1715 4.019908-0.1715 8.200368-0.1715 12.220276C431.667274 646.626158 432.005408 654.998026 432.508961 663.198394L432.508961 663.198394 432.508961 663.198394zM152.984899 725.462566c-9.374108-8.703921-14.224756-17.070924-14.728309-25.104657l0.332053 0 0-73.311924c30.132887 22.259706 76.158092 42.513716 129.219656 56.573053 36.988015 9.872796 90.216214 19.917091 151.643564 19.917091 6.025604 0 12.049992-0.166635 18.07438-0.333269 6.195888 34.812035 17.407842 68.289777 33.311107 99.590322C343.79854 803.630004 200.355344 769.820209 152.984899 725.462566L152.984899 725.462566 152.984899 725.462566zM797.055588 963.475152c-179.258687 0-325.045714-145.787027-325.045714-325.049363 0-179.263552 145.787027-325.050579 325.045714-325.050579 179.263552 0 325.049363 145.787027 325.049363 325.050579C1122.104951 817.688126 976.31914 963.475152 797.055588 963.475152L797.055588 963.475152 797.055588 963.475152zM797.055588 963.475152"
    p-id="3419" fill="#999999"></path>
  <path
    d="M903.510769 434.056364l-64.611652 119.17536c-17.237558 32.302785-27.785407 53.72567-31.633814 64.440153l-1.168875 0c-11.383454-25.946345-43.520821-87.037993-96.410885-183.615513l-60.758379 0 113.149756 194.32513L669.347807 628.381494l0 43.017268 108.79293 0 0 59.085952L669.347807 730.484714l0 43.515956 108.79293 0 0 86.202387 53.897169 0 0-86.202387 104.945739 0 0-43.515956-104.945739 0 0-59.252586 104.945739 0 0-42.850634-90.216214 0 114.151996-194.32513L903.510769 434.056364 903.510769 434.056364 903.510769 434.056364zM903.510769 434.056364"
    p-id="3420" fill="#999999"></path>
</svg>
