<?xml version="1.0" standalone="no"?><!DOCTYPE svg PUBLIC "-//W3C//DTD SVG 1.1//EN" "http://www.w3.org/Graphics/SVG/1.1/DTD/svg11.dtd"><svg t="1496394893290" class="icon" style="" viewBox="0 0 1024 1024" version="1.1" xmlns="http://www.w3.org/2000/svg" p-id="9518" xmlns:xlink="http://www.w3.org/1999/xlink" width="100" height="100"><defs><style type="text/css"></style></defs><path d="M512.006651 116.705002c44.556798 0 87.751576 8.706289 128.386042 25.876344 39.271422 16.593933 74.550926 40.36022 104.857163 70.638827 30.303166 30.274514 54.088896 65.516156 70.696132 104.743576 17.181311 40.584324 25.892717 83.72589 25.892717 128.22743 0 60.133565-16.352433 118.959346-47.295166 170.119539-1.840928 3.044336-3.358491 6.271844-4.529153 9.625218l-2.033309 2.111081c-1.853208 1.923816-3.551896 3.987824-5.081739 6.178723-3.257184 4.502547-22.943548 28.40391-139.785673 147.653875-55.362912 56.503898-109.00053 110.372783-122.329093 123.745349-0.034792 0-0.069585 0-0.106424 0-3.27458 0-6.54302 0.315178-9.757225 0.939395-13.654998-13.286608-68.817342-67.040882-125.855406-123.673717C264.828063 663.513786 244.41822 638.84699 241.021867 634.116245c-1.658779-2.376117-3.515057-4.606925-5.550413-6.668886l-1.614777-1.638313c-1.174756-3.412726-2.707668-6.693446-4.575202-9.7869-30.828123-51.090609-47.124274-109.816105-47.124274-169.830967 0-44.50154 8.711406-87.643106 25.892717-128.22743 16.607236-39.22742 40.392966-74.468039 70.697155-104.743576 30.30726-30.278607 65.587787-54.044894 104.861256-70.638827C424.246889 125.410268 467.44576 116.705002 512.006651 116.705002M511.968789 587.729775c78.135568 0 141.706419-63.475683 141.706419-141.499711 0-78.017888-63.567781-141.490501-141.706419-141.490501-78.141708 0-141.714605 63.47159-141.714605 141.490501C370.25316 524.254092 433.826058 587.729775 511.968789 587.729775M512.006651 65.539692c-210.435757 0-381.012713 170.406065-381.012713 380.651486 0 71.802326 19.899212 138.956795 54.481845 196.266036 1.886977 6.696516 5.536087 13.025665 10.972912 18.288528l2.610454 2.644223c24.922622 35.778878 279.417851 282.991236 279.417851 282.991236 8.326643 8.05342 19.243273 12.079106 30.159904 12.079106 4.059456 0 8.118911-0.556679 12.045337-1.670036 1.283226 0.11768 2.574638 0.178055 3.860934 0.178055 10.605545 0 21.211091-4.01136 29.30749-12.040221 0 0 247.936859-248.334925 270.985808-281.388738l2.967588-3.083222c5.14109-5.098111 8.643867-11.20111 10.520611-17.670451 34.704406-57.380872 54.680367-124.656091 54.680367-196.596564C893.002992 235.945757 722.426035 65.539692 512.006651 65.539692L512.006651 65.539692zM511.968789 536.564465c-50.008974 0-90.549296-40.443108-90.549296-90.334401 0-49.880037 40.540322-90.325192 90.549296-90.325192s90.541109 40.444131 90.541109 90.325192C602.507852 496.121358 561.977763 536.564465 511.968789 536.564465L511.968789 536.564465z" p-id="9519" fill="#bfbfbf"></path></svg>