<?xml version="1.0" standalone="no"?>
<!DOCTYPE svg PUBLIC "-//W3C//DTD SVG 1.1//EN" "http://www.w3.org/Graphics/SVG/1.1/DTD/svg11.dtd">
<svg t="1497422230945" class="icon" style="" viewBox="0 0 1024 1024" version="1.1" xmlns="http://www.w3.org/2000/svg" p-id="1011" xmlns:xlink="http://www.w3.org/1999/xlink" width="200" height="200">
  <defs>
    <style type="text/css">

    </style>
  </defs>
  <path d="M521.683035 397.756049" p-id="1012" fill="#FF3B00"></path>
  <path
    d="M511.142981 824.484967c177.058578-1.871627 266.26325-30.450523 309.013913-73.718979 40.387849-40.895409 39.034015-98.859565 33.275871-159.824055-4.64581-48.913013-31.032784-101.969393-72.42245-149.316747-38.858006-44.438095-90.718141-83.569324-150.184511-109.48046-15.448854 8.924253-32.695656 16.172331-51.234895 21.284769l-0.067538 0c-21.36254 5.949502-44.437072 9.209756-68.378343 9.209756-23.939225 0-47.012733-3.25923-68.352761-9.209756l-0.089028 0c-18.539238-5.112438-35.789111-12.360516-51.238988-21.284769-59.464323 25.911136-111.326505 65.042365-150.182464 109.48046-41.388643 47.346331-67.775616 100.403734-72.398914 149.316747-5.779633 60.963467-7.136537 118.928646 33.254382 159.824055C244.881778 794.034445 334.087473 822.61334 511.142981 824.484967L511.142981 824.484967zM847.676667 777.599124c-49.485041 50.103118-147.251715 83.107813-336.37712 85.134982l-0.311085 0c-189.127452-2.02717-286.892079-35.031864-336.37405-85.134982-51.883671-52.526307-50.816363-119.856785-44.168965-190.116989 5.399987-57.019645 35.143405-117.67612 81.648578-170.884972 44.525076-50.960649 104.69855-95.467305 173.656085-123.624599l9.402137-3.834328 8.513908 5.573949c14.183024 9.232269 30.94171 16.72287 49.480948 21.855774l-0.021489 0.022513c17.848507 4.934382 37.411051 7.66661 58.016345 7.66661 20.608364 0 40.167838-2.732228 58.020438-7.66661l-0.023536-0.022513c18.562774-5.133927 35.302017-12.623505 49.481971-21.855774l8.537444-5.573949 9.381671 3.834328c68.952418 28.157293 129.128963 72.66395 173.655062 123.624599 46.503127 53.208852 76.246545 113.865327 81.646532 170.884972C898.490983 657.742339 899.557268 725.072817 847.676667 777.599124z"
    p-id="1013" fill="#FF3B00">></path>
  <path
    d="M412.357094 309.629943c0.578168 10.530844-7.579629 19.564591-18.204617 20.159132-10.671037 0.573051-19.784602-7.513114-20.361747-18.066471 0-0.110517-2.311649-38.182624-13.694907-80.286558-6.091742-22.538319-28.254507-43.910069-46.059012-61.140499-12.849656-12.382005-23.874757-23.045879-29.164227-33.908274l-0.555655-1.298576c-4.201695-9.298783-4.758374-18.683525-2.490727-27.321252 1.734504-6.65456 5.091972-12.668531 9.625218-17.714454 4.180206-4.671393 9.559727-8.637728 15.738449-11.589966l-0.021489-0.042979c11.314697-5.375427 25.474185-7.226588 39.989783-3.479241 11.893888 3.039219 28.411073 6.67298 44.01547 5.66093 12.960173-0.859577 25.585725-5.177929 33.700543-16.833387 14.514575-20.842701 30.498618-32.608675 45.703925-39.195697 15.515369-6.741541 29.043477-8.975419 40.565904-7.976672 20.73116 1.796926 28.631084 8.064676 42.548048 22.385846 4.2897 4.406356 9.379625 9.648754 15.582907 15.113209 7.068999 6.235005 20.674878 7.490601 35.123962 6.610558 17.270339-1.014096 35.341926-5.309936 47.790446-8.504698 14.516622-3.746324 28.675086-1.896186 39.990806 3.480264 0.420579 0.221034 0.823761 0.440022 1.221828 0.660032 5.671163 2.866281 10.603499 6.610558 14.495132 10.972912 4.532223 5.045923 7.868201 11.060917 9.624195 17.692964 2.356674 9.055237 1.667989 18.837021-3.048429 28.575826l-0.040932 0.045025 0.040932 0.042979c-3.75451 7.711636-10.335393 17.890462-18.182105 30.009478-15.780405 24.366967-37.143968 57.392128-44.50154 84.645842-10.736529 39.703257-3.467985 79.449493-3.446495 79.582523 1.533936 10.443863-5.757121 20.180622-16.338107 21.723767-10.559497 1.543146-20.385283-5.728468-21.917172-16.171308-0.021489-0.132006-8.625448-47.015803 4.333702-95.003747 8.91402-32.960693 32.165584-68.918649 49.371454-95.488795 7.18054-11.103896 13.228279-20.446681 15.892969-25.955138l0.024559 0c0.487094-0.968048 0.596588-1.806135 0.441045-2.423189-0.132006-0.485047-0.533143-1.12359-1.130753-1.807159-0.800225-0.902556-1.825578-1.696642-2.960425-2.313695l-0.663102-0.285502c-3.624551-1.740644-8.404414-2.269693-13.516852-0.969071-14.09195 3.634784-34.678824 8.481162-55.216579 9.69378-23.317055 1.409093-46.725184-1.896186-62.932308-16.172331-7.845689-6.897084-13.700023-12.151761-17.84953-17.229406-5.054109-6.184863-9.026584-9.442046-14.738679-10.531867-7.912204-1.511423-16.070001 0.706081-25.140587 4.647857-9.378601 4.077875-19.537985 11.744485-29.363771 25.867134-16.2061 23.288402-39.523155 31.792077-63.040778 33.336246-20.895913 1.364067-41.459251-3.086291-56.132438-6.874571-5.111414-1.322112-9.869788-0.77055-13.513782 0.969071l0-0.042979-0.067538 0.042979c-1.378393 0.639566-2.601244 1.542122-3.557012 2.600221-0.600681 0.661056-1.000793 1.299599-1.134847 1.806135-0.130983 0.506537-0.065492 1.168616 0.223081 1.939165l0.24457 0.48607c2.334161 4.846378 11.091616 13.262048 21.274536 23.110347 21.251 20.513196 47.704488 46.070268 56.507992 78.67792C409.778362 267.128967 412.357094 309.520449 412.357094 309.629943z"
    p-id="1014" fill="#FF3B00">></path>
  <path
    d="M356.893898 214.052121c-9.93528-3.745301-14.914688-14.805194-11.114129-24.63098 3.778046-9.870812 14.939247-14.782681 24.854061-11.015891 31.165814 11.896958 44.280506-2.006703 56.929594-15.378246l0.979304-0.969071c13.58132-14.343683 27.14115-28.071336 52.192709-29.348422l0-0.021489c31.055297-1.564635 43.590797 11.654434 56.597019 25.446555 7.311523 7.755638 14.957667 15.818267 31.78696 15.775288 15.225773-0.042979 33.541931-11.69946 50.681286-27.319206 25.986861-23.663956 47.592948-55.126528 54.616922-72.795956 3.869121-9.870812 15.072277-14.71719 25.03314-10.884908 9.912767 3.834328 14.824637 14.960737 10.936073 24.810059-8.625448 21.723767-34.189683 59.531861-64.420195 87.072101-23.431665 21.326724-50.484811 37.234019-76.847226 37.323047-33.45495 0.109494-46.971801-14.166651-59.929928-27.89328-6.737448-7.139607-13.20372-13.969153-26.499537-13.30912l0 0-0.064468 0c-9.736758 0.487094-17.805528 8.637728-25.966395 17.252943-0.309038 0.373507-0.6191 0.74906-0.976234 1.12359C434.387853 211.80494 412.290579 235.20386 356.893898 214.052121z"
    p-id="1015" fill="#FF3B00"></path>
  <path
    d="M851.054601 255.121492c8.378831 6.52153 9.825786 18.573008 3.242857 26.879184-6.600325 8.328689-18.760273 9.761318-27.139104 3.216251-0.065492-0.042979-25.742291-19.387559-75.402317-16.676821-10.492982 0.550539-21.632693 3.01773-32.656771 6.587022 11.802814 0.793062 23.608697 2.556219 34.746362 5.640464 61.084217 16.877389 87.471191 62.838164 87.539752 62.97017 5.180999 9.209756 1.822508 20.842701-7.491625 25.999141-9.315156 5.111414-21.074991 1.806135-26.231431-7.447623-0.045025-0.065492-18.428721-32.014134-64.11218-44.639686-48.235584-13.30605-115.300003 4.363378-115.480104 4.40738l-0.021489-0.022513c-7.424086 1.828648-8.116865-3.208065-12.852726-9.728572-6.222725-8.5487-6.888897-20.808932 1.759063-26.956955 0.199545-0.153496 70.134337-51.619658 132.689045-55.035454C813.664016 226.832192 850.942037 255.032464 851.054601 255.121492z"
    p-id="1016" fill="#FF3B00"></path>
  <path
    d="M498.716974 679.335123 434.342828 679.335123 431.87666 679.335123 431.87666 676.911934 431.87666 641.924071 431.87666 639.501906 434.342828 639.501906 498.716974 639.501906 498.716974 613.283778 434.342828 613.283778 431.87666 613.283778 431.87666 610.859565 431.87666 582.25918 431.87666 579.837015 434.342828 579.837015 478.023676 579.837015 418.249291 473.748814 416.226215 470.113007 420.404374 470.113007 458.352661 470.113007 459.817012 470.113007 460.505697 471.39214 515.3457 570.71424 565.272809 471.478098 565.941028 470.113007 567.450405 470.113007 607.196641 470.113007 611.286796 470.113007 609.35377 473.728348 552.513204 579.837015 595.816452 579.837015 598.260108 579.837015 598.260108 582.25918 598.260108 610.859565 598.260108 613.283778 595.816452 613.283778 531.173177 613.283778 531.173177 639.501906 595.816452 639.501906 598.260108 639.501906 598.260108 641.924071 598.260108 676.911934 598.260108 679.335123 595.816452 679.335123 531.173177 679.335123 531.173177 720.931496 531.173177 723.399711 528.705985 723.399711 501.186212 723.399711 498.716974 723.399711 498.716974 720.931496Z"
    p-id="1017"
    fill="#FF3B00"></path>
</svg>
