<?xml version="1.0" standalone="no"?><!DOCTYPE svg PUBLIC "-//W3C//DTD SVG 1.1//EN" "http://www.w3.org/Graphics/SVG/1.1/DTD/svg11.dtd"><svg t="1497342277560" class="icon" style="" viewBox="0 0 1024 1024" version="1.1" xmlns="http://www.w3.org/2000/svg" p-id="2378" xmlns:xlink="http://www.w3.org/1999/xlink" width="100" height="100"><defs><style type="text/css"></style></defs><path d="M558.531758 465.438112 465.438112 465.438112 465.438112 558.531758 558.531758 558.531758 558.531758 465.438112ZM558.531758 628.344463 465.438112 628.344463 465.438112 721.438109 558.531758 721.438109 558.531758 628.344463ZM930.906341 93.093646 837.812695 93.093646 837.812695 23.280941C837.812695 10.420706 827.39199 0 814.531755 0 801.671519 0 791.280931 10.420706 791.280931 23.280941L791.280931 93.093646 232.719056 93.093646 232.719056 23.280941C232.719056 10.420706 222.29835 0 209.438115 0 196.57788 0 186.187292 10.420706 186.187292 23.280941L186.187292 93.093646 93.093646 93.093646C41.682823 93.093646 0 134.776469 0 186.187292L0 325.812702 0 372.374584 0 930.906341C0 982.317164 41.682823 1023.999987 93.093646 1023.999987L930.906341 1023.999987C982.317164 1023.999987 1023.999987 982.317164 1023.999987 930.906341L1023.999987 372.374584 1023.999987 325.812702 1023.999987 186.187292C1023.999987 134.776469 982.317164 93.093646 930.906341 93.093646ZM977.438105 930.906341C977.438105 956.596694 956.596694 977.438105 930.906341 977.438105L93.093646 977.438105C67.373176 977.438105 46.531764 956.596694 46.531764 930.906341L46.531764 372.374584 977.438105 372.374584 977.438105 930.906341ZM977.438105 325.812702 46.531764 325.812702 46.531764 186.187292C46.531764 160.466822 67.373176 139.62541 93.093646 139.62541L186.187292 139.62541 186.187292 209.438115C186.187292 222.29835 196.57788 232.719056 209.438115 232.719056 222.29835 232.719056 232.719056 222.29835 232.719056 209.438115L232.719056 139.62541 791.280931 139.62541 791.280931 209.438115C791.280931 222.29835 801.671519 232.719056 814.531755 232.719056 827.39199 232.719056 837.812695 222.29835 837.812695 209.438115L837.812695 139.62541 930.906341 139.62541C956.596694 139.62541 977.438105 160.466822 977.438105 186.187292L977.438105 325.812702ZM791.280931 628.344463 698.187285 628.344463 698.187285 721.438109 791.280931 721.438109 791.280931 628.344463ZM791.280931 465.438112 698.187285 465.438112 698.187285 558.531758 791.280931 558.531758 791.280931 465.438112ZM558.531758 791.280931 465.438112 791.280931 465.438112 884.374577 558.531758 884.374577 558.531758 791.280931ZM325.812702 791.280931 232.719056 791.280931 232.719056 884.374577 325.812702 884.374577 325.812702 791.280931ZM325.812702 465.438112 232.719056 465.438112 232.719056 558.531758 325.812702 558.531758 325.812702 465.438112ZM325.812702 628.344463 232.719056 628.344463 232.719056 721.438109 325.812702 721.438109 325.812702 628.344463Z" p-id="2379" fill="#515151"></path></svg>