<?xml version="1.0" standalone="no"?><!DOCTYPE svg PUBLIC "-//W3C//DTD SVG 1.1//EN" "http://www.w3.org/Graphics/SVG/1.1/DTD/svg11.dtd"><svg t="1496393561171" class="icon" style="" viewBox="0 0 1024 1024" version="1.1" xmlns="http://www.w3.org/2000/svg" p-id="6990" xmlns:xlink="http://www.w3.org/1999/xlink" width="100" height="100"><defs><style type="text/css"></style></defs><path d="M384.887 78.974c49.902 20.708 109.436 49.030 150.577 80.414 6.443 4.932 14.14 7.952 22.219 8.718 221.978 21.474 389.374 192.954 389.374 398.878 0 221.168-195.314 401.108-435.405 401.108-240.135 0-435.491-179.94-435.491-401.108 0-170.205 117.196-322.334 291.652-378.594 19.562-6.315 32.042-25.429 29.937-45.883-2.274-22.285-7.038-43.823-12.863-63.533M305.027 2.791c0 0 41.588 67.847 49.413 144.157-187.321 60.406-321.823 225.507-321.823 420.034 0 245.534 214.492 444.653 479.036 444.653 264.543 0 478.949-199.119 478.949-444.653 0-229.93-187.829-418.908-428.729-442.21-90.491-69.039-256.846-121.981-256.846-121.981v0z" p-id="6991" fill="#20A0FF"></path><path d="M572.378 595.941c-32.574 0-54.006 1.934-89.895 1.934 39.504-76.076 9.142-155.957-28.875-179.154 34.275-7.526 51.327-20.285 88.791-30.66 54.644 47.776 53.793 166.546 29.98 207.881z" p-id="6992" fill="#20A0FF"></path><path d="M810.087 566.215c-32.743 0-54.091 1.915-89.897 1.915 39.334-76.055 9.058-156.021-29.043-179.154 34.402-7.441 51.454-20.262 88.79-30.66 54.73 47.882 53.877 166.567 30.15 207.9z" p-id="6993" fill="#20A0FF"></path></svg>