<?xml version="1.0" standalone="no"?>
<!DOCTYPE svg PUBLIC "-//W3C//DTD SVG 1.1//EN" "http://www.w3.org/Graphics/SVG/1.1/DTD/svg11.dtd">
<svg t="1496393325040" class="icon" style="" viewBox="0 0 1024 1024" version="1.1" xmlns="http://www.w3.org/2000/svg" p-id="2748" xmlns:xlink="http://www.w3.org/1999/xlink" width="100" height="100">
  <defs>
    <style type="text/css"></style>
  </defs>
  <path
    d="M867.97312 212.67456c-237.52704 0-475.02336 0-712.17152 0-16.5888 69.86752-60.1088 107.8272-131.92192 113.98144 0 120.19712 0 239.93344 0 359.36256 77.1072 7.58784 121.06752 49.37728 133.29408 125.30688 243.99872 0 488.12032 0 731.904 0 9.3184-66.43712 46.22336-107.24352 111.04256-123.19744 0-120.4736 0-240.87552 0-361.40032C928.24576 320.67584 884.41856 282.60352 867.97312 212.67456zM956.4672 645.02784c0.02048 7.17824-1.6384 11.06944-8.66304 14.36672-44.04224 20.72576-74.51648 54.26176-91.84256 99.7376-0.78848 2.07872-1.56672 4.15744-2.4064 6.21568-0.23552 0.5632-0.67584 1.05472-1.44384 2.23232-3.04128 0-6.51264 0-9.984 0-212.7872 0-425.5744-0.03072-638.35136 0.13312-7.51616 0.01024-11.34592-1.50528-14.3872-9.46176-20.70528-54.15936-59.29984-89.98912-114.3296-107.85792-6.16448-2.00704-7.69024-4.59776-7.68-10.56768 0.16384-88.73984 0.18432-177.47968-0.04096-266.21952-0.02048-6.4512 1.67936-9.3184 8.07936-11.3664 51.99872-16.59904 89.09824-50.13504 111.08352-100.02432 2.6624-6.03136 6.4-5.80608 11.2128-5.79584 88.10496 0.03072 176.20992 0.02048 264.31488 0.02048 120.86272 0 241.72544 0.07168 362.5984-0.16384 7.33184-0.01024 10.83392 1.91488 14.04928 8.92928 21.8112 47.50336 57.6 79.96416 107.44832 96.16384 7.99744 2.60096 10.47552 6.07232 10.43456 14.57152C956.17024 465.64352 956.23168 555.33568 956.4672 645.02784z"
    p-id="2749" fill="#999999"></path>
  <path
    d="M586.57792 515.11296c-11.49952-6.0416-23.3984-11.47904-35.54304-16.05632-6.56384-2.47808-8.59136-5.74464-8.3456-12.47232 0.49152-13.66016 0.14336-27.35104 0.14336-41.03168 0-11.97056 0-23.95136 0-38.18496 20.8384 5.41696 39.96672 10.3936 59.51488 15.48288 4.72064-10.26048 9.44128-20.5312 15.31904-33.30048-25.61024-5.84704-49.82784-11.3664-75.3152-17.19296 0-11.8784 0-24.71936 0-37.18144-13.71136 0-26.25536 0-39.50592 0 0 11.52-0.256 22.29248 0.1024 33.05472 0.19456 5.65248-1.9968 7.40352-7.40352 8.56064-10.496 2.24256-21.18656 4.6592-30.98624 8.88832-23.38816 10.0864-39.22944 26.58304-41.1648 53.58592-1.91488 26.73664 9.87136 46.26432 32.27648 59.2384 12.56448 7.28064 26.23488 12.77952 39.7312 18.29888 5.59104 2.28352 7.66976 4.95616 7.58784 11.04896-0.32768 26.71616-0.12288 53.44256-0.17408 80.15872 0 2.42688-0.48128 4.864-0.75776 7.5776-27.51488-0.11264-52.35712-8.47872-78.10048-19.32288 0 3.96288 0.01024 6.49216 0 9.02144-0.1536 31.82592-0.24576 32.24576 31.46752 38.95296 15.39072 3.25632 31.19104 4.59776 47.70816 6.94272 0 12.46208 0 25.06752 0 37.7344 13.71136 0 26.51136 0 39.9872 0 0-14.04928 0-27.32032 0-39.70048 12.97408-4.11648 25.46688-6.9632 37.0176-11.99104 25.27232-10.99776 40.38656-30.0544 42.51648-58.32704C624.85504 549.51936 612.10624 528.52736 586.57792 515.11296zM488.98048 469.07392c-12.71808-6.88128-24.34048-11.49952-33.96608-18.75968-14.75584-11.13088-13.17888-30.39232 3.03104-39.38304 9.1136-5.05856 19.72224-7.41376 30.93504-11.44832C488.98048 423.20896 488.98048 444.3648 488.98048 469.07392zM562.26816 611.61472c-7.95648 5.26336-17.48992 8.13056-27.52512 12.62592 0-30.95552 0-59.65824 0-91.62752 12.36992 8.33536 24.2176 14.17216 33.28 22.89664C584.8064 571.66848 581.7344 598.74304 562.26816 611.61472z"
    p-id="2750"
    fill="#999999"></path>
</svg>
